<?xml version="1.0" encoding="UTF-8" standalone="no"?>
<!-- Created with Inkscape (http://www.inkscape.org/) -->

<svg
   xmlns:dc="http://purl.org/dc/elements/1.1/"
   xmlns:cc="http://creativecommons.org/ns#"
   xmlns:rdf="http://www.w3.org/1999/02/22-rdf-syntax-ns#"
   xmlns:svg="http://www.w3.org/2000/svg"
   xmlns="http://www.w3.org/2000/svg"
   xmlns:sodipodi="http://sodipodi.sourceforge.net/DTD/sodipodi-0.dtd"
   xmlns:inkscape="http://www.inkscape.org/namespaces/inkscape"
   width="8.2677164in"
   height="11.692913in"
   viewBox="0 0 210 297"
   version="1.1"
   id="svg8"
   sodipodi:docname="numitron-clock-enclosure-flattened.svg"
   inkscape:version="0.92.2 5c3e80d, 2017-08-06">
  <defs
     id="defs2" />
  <sodipodi:namedview
     id="base"
     pagecolor="#ffffff"
     bordercolor="#666666"
     borderopacity="1.0"
     inkscape:pageopacity="0.0"
     inkscape:pageshadow="2"
     inkscape:zoom="1.4142136"
     inkscape:cx="446.60738"
     inkscape:cy="529.68163"
     inkscape:document-units="mm"
     inkscape:current-layer="layer1"
     showgrid="true"
     units="in"
     inkscape:window-width="1920"
     inkscape:window-height="1035"
     inkscape:window-x="1680"
     inkscape:window-y="1"
     inkscape:window-maximized="1">
    <inkscape:grid
       type="xygrid"
       id="grid10"
       units="in"
       spacingx="2.54"
       spacingy="2.54" />
  </sodipodi:namedview>
  <metadata
     id="metadata5">
    <rdf:RDF>
      <cc:Work
         rdf:about="">
        <dc:format>image/svg+xml</dc:format>
        <dc:type
           rdf:resource="http://purl.org/dc/dcmitype/StillImage" />
        <dc:title></dc:title>
      </cc:Work>
    </rdf:RDF>
  </metadata>
  <g
     inkscape:label="Layer 1"
     inkscape:groupmode="layer"
     id="layer1">
    <path
       style="opacity:1;fill:#ff6600;fill-opacity:1;fill-rule:nonzero;stroke:none;stroke-width:0.99999994;stroke-linecap:square;stroke-linejoin:miter;stroke-miterlimit:4;stroke-dasharray:none;stroke-dashoffset:0;stroke-opacity:1;paint-order:fill markers stroke"
       d="M 58.273438 24.951172 L 58.273438 25.238281 L 58.273438 37.433594 L 47.708984 37.433594 L 47.708984 47.990234 L 35.234375 47.990234 L 35.234375 60.087891 L 47.708984 60.087891 L 47.708984 71.035156 L 35.234375 71.035156 L 35.234375 83.126953 L 47.708984 83.126953 L 47.708984 94.074219 L 35.234375 94.074219 L 35.234375 106.16602 L 47.708984 106.16602 L 47.708984 117.11328 L 35.234375 117.11328 L 35.234375 129.20508 L 47.708984 129.20508 L 47.708984 140.15234 L 35.234375 140.15234 L 35.234375 152.24414 L 47.708984 152.24414 L 47.708984 163.19141 L 35.234375 163.19141 L 35.234375 175.29102 L 47.708984 175.29102 L 47.708984 186.23047 L 35.234375 186.23047 L 35.234375 198.33008 L 47.708984 198.33008 L 47.708984 210.80469 L 566.68555 210.80469 L 566.68555 198.33008 L 579.16797 198.33008 L 579.16797 186.23047 L 566.68555 186.23047 L 566.68555 175.29102 L 579.16797 175.29102 L 579.16797 163.19141 L 566.68555 163.19141 L 566.68555 152.24414 L 579.16797 152.24414 L 579.16797 140.15234 L 566.68555 140.15234 L 566.68555 129.20508 L 579.16797 129.20508 L 579.16797 117.11328 L 566.68555 117.11328 L 566.68555 106.16602 L 579.16797 106.16602 L 579.16797 94.074219 L 566.68555 94.074219 L 566.68555 83.126953 L 579.16797 83.126953 L 579.16797 71.035156 L 566.68555 71.035156 L 566.68555 60.087891 L 579.16797 60.087891 L 579.16797 47.990234 L 566.68555 47.990234 L 566.68555 37.433594 L 554.21094 37.433594 L 554.21094 24.951172 L 542.11133 24.951172 L 542.11133 37.433594 L 531.17188 37.433594 L 531.17188 24.951172 L 519.07227 24.951172 L 519.07227 37.433594 L 508.125 37.433594 L 508.125 24.951172 L 496.0332 24.951172 L 496.0332 37.433594 L 485.08594 37.433594 L 485.08594 24.951172 L 472.99414 24.951172 L 472.99414 37.433594 L 462.04688 37.433594 L 462.04688 24.951172 L 449.95508 24.951172 L 449.95508 37.433594 L 439.00781 37.433594 L 439.00781 24.951172 L 426.91016 24.951172 L 426.91016 37.433594 L 415.96875 37.433594 L 415.96875 24.951172 L 403.87109 24.951172 L 403.87109 37.433594 L 392.92969 37.433594 L 392.92969 24.951172 L 380.83203 24.951172 L 380.83203 37.433594 L 369.88477 37.433594 L 369.88477 24.951172 L 357.79297 24.951172 L 357.79297 37.433594 L 346.8457 37.433594 L 346.8457 24.951172 L 334.75391 24.951172 L 334.75391 37.433594 L 323.80664 37.433594 L 323.80664 24.951172 L 311.71484 24.951172 L 311.71484 37.433594 L 300.76758 37.433594 L 300.76758 24.951172 L 288.67578 24.951172 L 288.67578 37.433594 L 277.72852 37.433594 L 277.72852 24.951172 L 265.63086 24.951172 L 265.63086 37.433594 L 254.68945 37.433594 L 254.68945 24.951172 L 242.5918 24.951172 L 242.5918 37.433594 L 231.64453 37.433594 L 231.64453 24.951172 L 219.55273 24.951172 L 219.55273 37.433594 L 208.60547 37.433594 L 208.60547 24.951172 L 196.51367 24.951172 L 196.51367 37.433594 L 185.56641 37.433594 L 185.56641 24.951172 L 173.47461 24.951172 L 173.47461 37.433594 L 162.52734 37.433594 L 162.52734 24.951172 L 150.43555 24.951172 L 150.43555 37.433594 L 139.48828 37.433594 L 139.48828 24.951172 L 127.38867 24.951172 L 127.38867 37.433594 L 116.44922 37.433594 L 116.44922 24.951172 L 104.34961 24.951172 L 104.34961 37.433594 L 93.410156 37.433594 L 93.410156 24.951172 L 81.310547 24.951172 L 81.310547 37.433594 L 70.371094 37.433594 L 70.371094 24.951172 L 58.273438 24.951172 z "
       transform="scale(0.26458333)"
       id="rect12" />
    <path
       style="opacity:1;fill:#00aa88;fill-opacity:1;fill-rule:nonzero;stroke:none;stroke-width:0.99999994;stroke-linecap:square;stroke-linejoin:miter;stroke-miterlimit:4;stroke-dasharray:none;stroke-dashoffset:0;stroke-opacity:1;paint-order:fill markers stroke"
       d="M 623.71094 24.951172 L 623.71094 25.238281 L 623.71094 37.433594 L 618.24023 37.433594 L 605.4707 37.433594 L 605.4707 49.525391 L 617.95312 49.525391 L 617.95312 60.472656 L 605.4707 60.472656 L 605.4707 72.564453 L 617.95312 72.564453 L 617.95312 83.511719 L 605.4707 83.511719 L 605.4707 95.609375 L 617.95312 95.609375 L 617.95312 106.55078 L 605.4707 106.55078 L 605.4707 118.64844 L 617.95312 118.64844 L 617.95312 129.58984 L 605.4707 129.58984 L 605.4707 141.6875 L 617.95312 141.6875 L 617.95312 152.63477 L 605.4707 152.63477 L 605.4707 164.72656 L 617.95312 164.72656 L 617.95312 175.67383 L 605.4707 175.67383 L 605.4707 187.76562 L 617.95312 187.76562 L 617.95312 198.71289 L 605.4707 198.71289 L 605.4707 210.80469 L 618.24023 210.80469 L 623.71094 210.80469 L 623.71094 223.28711 L 635.80859 223.28711 L 635.80859 210.80469 L 646.75 210.80469 L 646.75 223.28711 L 658.84766 223.28711 L 658.84766 210.80469 L 669.78906 210.80469 L 669.78906 223.28711 L 681.88672 223.28711 L 681.88672 210.80469 L 692.83398 210.80469 L 692.83398 223.28711 L 704.92578 223.28711 L 704.92578 210.80469 L 715.87305 210.80469 L 715.87305 223.28711 L 727.96484 223.28711 L 727.96484 210.80469 L 733.44336 210.80469 L 746.20508 210.80469 L 746.20508 198.71289 L 733.73047 198.71289 L 733.73047 187.76562 L 746.20508 187.76562 L 746.20508 175.67383 L 733.73047 175.67383 L 733.73047 164.72656 L 746.20508 164.72656 L 746.20508 152.63477 L 733.73047 152.63477 L 733.73047 141.6875 L 746.20508 141.6875 L 746.20508 129.58984 L 733.73047 129.58984 L 733.73047 118.64844 L 746.20508 118.64844 L 746.20508 106.55078 L 733.73047 106.55078 L 733.73047 95.609375 L 746.20508 95.609375 L 746.20508 83.511719 L 733.73047 83.511719 L 733.73047 72.564453 L 746.20508 72.564453 L 746.20508 60.472656 L 733.73047 60.472656 L 733.73047 49.525391 L 746.20508 49.525391 L 746.20508 37.433594 L 733.44336 37.433594 L 727.96484 37.433594 L 727.96484 24.951172 L 715.87305 24.951172 L 715.87305 37.433594 L 704.92578 37.433594 L 704.92578 24.951172 L 692.83398 24.951172 L 692.83398 37.433594 L 681.88672 37.433594 L 681.88672 24.951172 L 669.78906 24.951172 L 669.78906 37.433594 L 658.84766 37.433594 L 658.84766 24.951172 L 646.75 24.951172 L 646.75 37.433594 L 635.80859 37.433594 L 635.80859 24.951172 L 623.71094 24.951172 z "
       transform="scale(0.26458333)"
       id="rect822" />
    <path
       style="opacity:1;fill:#ff0000;fill-opacity:1;fill-rule:nonzero;stroke:none;stroke-width:0.99999994;stroke-linecap:square;stroke-linejoin:miter;stroke-miterlimit:4;stroke-dasharray:none;stroke-dashoffset:0;stroke-opacity:1;paint-order:fill markers stroke"
       d="M 38.208984 444.56641 L 38.208984 444.75977 L 38.208984 463.19141 L 50.691406 463.19141 L 50.691406 474.33008 L 38.208984 474.33008 L 38.208984 486.23047 L 50.691406 486.23047 L 50.691406 497.36914 L 38.208984 497.36914 L 38.208984 509.26953 L 50.691406 509.26953 L 50.691406 520.4082 L 38.208984 520.4082 L 38.208984 532.30859 L 50.691406 532.30859 L 50.691406 543.44727 L 38.208984 543.44727 L 38.208984 555.35352 L 50.691406 555.35352 L 50.691406 566.48633 L 38.208984 566.48633 L 38.208984 585.11133 L 50.882812 585.11133 L 569.2832 585.11133 L 581.95117 585.11133 L 581.95117 566.48633 L 569.47656 566.48633 L 569.47656 555.35352 L 581.95117 555.35352 L 581.95117 543.44727 L 569.47656 543.44727 L 569.47656 532.30859 L 581.95117 532.30859 L 581.95117 520.4082 L 569.47656 520.4082 L 569.47656 509.26953 L 581.95117 509.26953 L 581.95117 497.36914 L 569.47656 497.36914 L 569.47656 486.23047 L 581.95117 486.23047 L 581.95117 474.33008 L 569.47656 474.33008 L 569.47656 463.19141 L 581.95117 463.19141 L 581.95117 444.56641 L 569.2832 444.56641 L 50.882812 444.56641 L 38.208984 444.56641 z "
       transform="scale(0.26458333)"
       id="rect1727" />
    <path
       style="opacity:1;fill:#0000ff;fill-opacity:1;fill-rule:nonzero;stroke:none;stroke-width:0.99999994;stroke-linecap:square;stroke-linejoin:miter;stroke-miterlimit:4;stroke-dasharray:none;stroke-dashoffset:0;stroke-opacity:1;paint-order:fill markers stroke"
       d="M 34.376953 623.10547 L 34.376953 623.29688 L 34.376953 641.73047 L 46.853516 641.73047 L 46.853516 652.86133 L 34.376953 652.86133 L 34.376953 664.76953 L 46.853516 664.76953 L 46.853516 675.9082 L 34.376953 675.9082 L 34.376953 687.80859 L 46.853516 687.80859 L 46.853516 698.94727 L 34.376953 698.94727 L 34.376953 710.8457 L 46.853516 710.8457 L 46.853516 721.98633 L 34.376953 721.98633 L 34.376953 733.89258 L 46.853516 733.89258 L 46.853516 745.02539 L 34.376953 745.02539 L 34.376953 763.64844 L 47.044922 763.64844 L 58.759766 763.64844 L 58.759766 751.16602 L 69.898438 751.16602 L 69.898438 763.64844 L 81.798828 763.64844 L 81.798828 751.16602 L 92.9375 751.16602 L 92.9375 763.64844 L 104.83789 763.64844 L 104.83789 751.16602 L 115.97656 751.16602 L 115.97656 763.64844 L 127.87695 763.64844 L 127.87695 751.16602 L 139.01562 751.16602 L 139.01562 763.64844 L 150.92188 763.64844 L 150.92188 751.16602 L 162.05469 751.16602 L 162.05469 763.64844 L 173.96094 763.64844 L 173.96094 751.16602 L 185.09375 751.16602 L 185.09375 763.64844 L 197 763.64844 L 197 751.16602 L 208.13281 751.16602 L 208.13281 763.64844 L 220.03906 763.64844 L 220.03906 751.16602 L 231.17188 751.16602 L 231.17188 763.64844 L 243.07812 763.64844 L 243.07812 751.16602 L 254.2168 751.16602 L 254.2168 763.64844 L 266.11719 763.64844 L 266.11719 751.16602 L 277.25586 751.16602 L 277.25586 763.64844 L 289.15625 763.64844 L 289.15625 751.16602 L 300.29492 751.16602 L 300.29492 763.64844 L 312.20312 763.64844 L 312.20312 751.16602 L 323.33398 751.16602 L 323.33398 763.64844 L 335.24023 763.64844 L 335.24023 751.16602 L 346.37305 751.16602 L 346.37305 763.64844 L 358.2793 763.64844 L 358.2793 751.16602 L 369.41211 751.16602 L 369.41211 763.64844 L 381.31836 763.64844 L 381.31836 751.16602 L 392.45898 751.16602 L 392.45898 763.64844 L 404.35742 763.64844 L 404.35742 751.16602 L 415.49609 751.16602 L 415.49609 763.64844 L 427.39648 763.64844 L 427.39648 751.16602 L 438.53516 751.16602 L 438.53516 763.64844 L 450.44336 763.64844 L 450.44336 751.16602 L 461.57422 751.16602 L 461.57422 763.64844 L 473.48242 763.64844 L 473.48242 751.16602 L 484.61328 751.16602 L 484.61328 763.64844 L 496.52148 763.64844 L 496.52148 751.16602 L 507.65234 751.16602 L 507.65234 763.64844 L 519.55859 763.64844 L 519.55859 751.16602 L 530.69141 751.16602 L 530.69141 763.64844 L 542.59766 763.64844 L 542.59766 751.16602 L 553.73828 751.16602 L 553.73828 763.64844 L 565.44531 763.64844 L 578.11914 763.64844 L 578.11914 745.02539 L 565.63672 745.02539 L 565.63672 733.89258 L 578.11914 733.89258 L 578.11914 721.98633 L 565.63672 721.98633 L 565.63672 710.8457 L 578.11914 710.8457 L 578.11914 698.94727 L 565.63672 698.94727 L 565.63672 687.80859 L 578.11914 687.80859 L 578.11914 675.9082 L 565.63672 675.9082 L 565.63672 664.76953 L 578.11914 664.76953 L 578.11914 652.86133 L 565.63672 652.86133 L 565.63672 641.73047 L 578.11914 641.73047 L 578.11914 623.10547 L 565.44531 623.10547 L 553.73828 623.10547 L 553.73828 635.58789 L 542.59766 635.58789 L 542.59766 623.10547 L 530.69141 623.10547 L 530.69141 635.58789 L 519.55859 635.58789 L 519.55859 623.10547 L 507.65234 623.10547 L 507.65234 635.58789 L 496.52148 635.58789 L 496.52148 623.10547 L 484.61328 623.10547 L 484.61328 635.58789 L 473.48242 635.58789 L 473.48242 623.10547 L 461.57422 623.10547 L 461.57422 635.58789 L 450.44336 635.58789 L 450.44336 623.10547 L 438.53516 623.10547 L 438.53516 635.58789 L 427.39648 635.58789 L 427.39648 623.10547 L 415.49609 623.10547 L 415.49609 635.58789 L 404.35742 635.58789 L 404.35742 623.10547 L 392.45898 623.10547 L 392.45898 635.58789 L 381.31836 635.58789 L 381.31836 623.10547 L 369.41211 623.10547 L 369.41211 635.58789 L 358.2793 635.58789 L 358.2793 623.10547 L 346.37305 623.10547 L 346.37305 635.58789 L 335.24023 635.58789 L 335.24023 623.10547 L 323.33398 623.10547 L 323.33398 635.58789 L 312.20312 635.58789 L 312.20312 623.10547 L 300.29492 623.10547 L 300.29492 635.58789 L 289.15625 635.58789 L 289.15625 623.10547 L 277.25586 623.10547 L 277.25586 635.58789 L 266.11719 635.58789 L 266.11719 623.10547 L 254.2168 623.10547 L 254.2168 635.58789 L 243.07812 635.58789 L 243.07812 623.10547 L 231.17188 623.10547 L 231.17188 635.58789 L 220.03906 635.58789 L 220.03906 623.10547 L 208.13281 623.10547 L 208.13281 635.58789 L 197 635.58789 L 197 623.10547 L 185.09375 623.10547 L 185.09375 635.58789 L 173.96094 635.58789 L 173.96094 623.10547 L 162.05469 623.10547 L 162.05469 635.58789 L 150.92188 635.58789 L 150.92188 623.10547 L 139.01562 623.10547 L 139.01562 635.58789 L 127.87695 635.58789 L 127.87695 623.10547 L 115.97656 623.10547 L 115.97656 635.58789 L 104.83789 635.58789 L 104.83789 623.10547 L 92.9375 623.10547 L 92.9375 635.58789 L 81.798828 635.58789 L 81.798828 623.10547 L 69.898438 623.10547 L 69.898438 635.58789 L 58.759766 635.58789 L 58.759766 623.10547 L 47.044922 623.10547 L 34.376953 623.10547 z "
       transform="scale(0.26458333)"
       id="rect2432" />
    <circle
       style="opacity:1;fill:#ac9d93;fill-opacity:1;fill-rule:nonzero;stroke:none;stroke-width:0.26458332;stroke-linecap:square;stroke-linejoin:miter;stroke-miterlimit:4;stroke-dasharray:none;stroke-dashoffset:0;stroke-opacity:1;paint-order:fill markers stroke"
       id="path2655"
       cx="139.90515"
       cy="192.34613"
       r="2.286" />
    <circle
       cy="183.45613"
       cx="139.90515"
       id="circle2657"
       style="opacity:1;fill:#ac9d93;fill-opacity:1;fill-rule:nonzero;stroke:none;stroke-width:0.26458332;stroke-linecap:square;stroke-linejoin:miter;stroke-miterlimit:4;stroke-dasharray:none;stroke-dashoffset:0;stroke-opacity:1;paint-order:fill markers stroke"
       r="2.286" />
    <circle
       style="opacity:1;fill:#ac9d93;fill-opacity:1;fill-rule:nonzero;stroke:none;stroke-width:0.26458332;stroke-linecap:square;stroke-linejoin:miter;stroke-miterlimit:4;stroke-dasharray:none;stroke-dashoffset:0;stroke-opacity:1;paint-order:fill markers stroke"
       id="circle2659"
       cx="139.90515"
       cy="174.56613"
       r="2.286" />
    <rect
       style="opacity:1;fill:#ac9d93;fill-opacity:1;fill-rule:nonzero;stroke:none;stroke-width:0.26458332;stroke-linecap:square;stroke-linejoin:miter;stroke-miterlimit:4;stroke-dasharray:none;stroke-dashoffset:0;stroke-opacity:1;paint-order:fill markers stroke"
       id="rect2661"
       width="12.7"
       height="6.8579998"
       x="120.39795"
       y="190.18709"
       rx="1.27"
       ry="1.27" />
    <rect
       style="opacity:1;fill:#ac9d93;fill-opacity:1;fill-rule:nonzero;stroke:none;stroke-width:0.26458332;stroke-linecap:square;stroke-linejoin:miter;stroke-miterlimit:4;stroke-dasharray:none;stroke-dashoffset:0;stroke-opacity:1;paint-order:fill markers stroke"
       id="rect3126"
       width="1.778"
       height="1.778"
       x="72.518951"
       y="174.94708"
       rx="14.6" />
    <rect
       y="174.94708"
       x="77.598953"
       height="1.778"
       width="1.778"
       id="rect3148"
       style="opacity:1;fill:#ac9d93;fill-opacity:1;fill-rule:nonzero;stroke:none;stroke-width:0.26458332;stroke-linecap:square;stroke-linejoin:miter;stroke-miterlimit:4;stroke-dasharray:none;stroke-dashoffset:0;stroke-opacity:1;paint-order:fill markers stroke"
       rx="14.6" />
    <rect
       style="opacity:1;fill:#ac9d93;fill-opacity:1;fill-rule:nonzero;stroke:none;stroke-width:0.26458332;stroke-linecap:square;stroke-linejoin:miter;stroke-miterlimit:4;stroke-dasharray:none;stroke-dashoffset:0;stroke-opacity:1;paint-order:fill markers stroke"
       id="rect3150"
       width="1.778"
       height="1.778"
       x="82.678947"
       y="174.94708"
       rx="14.6" />
    <rect
       y="180.02708"
       x="72.518951"
       height="1.778"
       width="1.778"
       id="rect3152"
       style="opacity:1;fill:#ac9d93;fill-opacity:1;fill-rule:nonzero;stroke:none;stroke-width:0.26458332;stroke-linecap:square;stroke-linejoin:miter;stroke-miterlimit:4;stroke-dasharray:none;stroke-dashoffset:0;stroke-opacity:1;paint-order:fill markers stroke"
       rx="14.6" />
    <rect
       style="opacity:1;fill:#ac9d93;fill-opacity:1;fill-rule:nonzero;stroke:none;stroke-width:0.26458332;stroke-linecap:square;stroke-linejoin:miter;stroke-miterlimit:4;stroke-dasharray:none;stroke-dashoffset:0;stroke-opacity:1;paint-order:fill markers stroke"
       id="rect3154"
       width="1.778"
       height="1.778"
       x="77.598946"
       y="180.02711"
       rx="14.6" />
    <rect
       y="180.02708"
       x="82.678947"
       height="1.778"
       width="1.778"
       id="rect3156"
       style="opacity:1;fill:#ac9d93;fill-opacity:1;fill-rule:nonzero;stroke:none;stroke-width:0.26458332;stroke-linecap:square;stroke-linejoin:miter;stroke-miterlimit:4;stroke-dasharray:none;stroke-dashoffset:0;stroke-opacity:1;paint-order:fill markers stroke"
       rx="14.6" />
    <rect
       style="opacity:1;fill:#ac9d93;fill-opacity:1;fill-rule:nonzero;stroke:none;stroke-width:0.26458332;stroke-linecap:square;stroke-linejoin:miter;stroke-miterlimit:4;stroke-dasharray:none;stroke-dashoffset:0;stroke-opacity:1;paint-order:fill markers stroke"
       id="rect3158"
       width="1.778"
       height="1.778"
       x="72.518951"
       y="185.10709"
       rx="14.6" />
    <rect
       y="185.10709"
       x="77.598946"
       height="1.778"
       width="1.778"
       id="rect3160"
       style="opacity:1;fill:#ac9d93;fill-opacity:1;fill-rule:nonzero;stroke:none;stroke-width:0.26458332;stroke-linecap:square;stroke-linejoin:miter;stroke-miterlimit:4;stroke-dasharray:none;stroke-dashoffset:0;stroke-opacity:1;paint-order:fill markers stroke"
       rx="14.6" />
    <rect
       style="opacity:1;fill:#ac9d93;fill-opacity:1;fill-rule:nonzero;stroke:none;stroke-width:0.26458332;stroke-linecap:square;stroke-linejoin:miter;stroke-miterlimit:4;stroke-dasharray:none;stroke-dashoffset:0;stroke-opacity:1;paint-order:fill markers stroke"
       id="rect3162"
       width="1.778"
       height="1.778"
       x="82.678947"
       y="185.10709"
       rx="14.6" />
    <rect
       y="174.94708"
       x="87.758949"
       height="1.778"
       width="1.778"
       id="rect3164"
       style="opacity:1;fill:#ac9d93;fill-opacity:1;fill-rule:nonzero;stroke:none;stroke-width:0.26458332;stroke-linecap:square;stroke-linejoin:miter;stroke-miterlimit:4;stroke-dasharray:none;stroke-dashoffset:0;stroke-opacity:1;paint-order:fill markers stroke"
       rx="14.6" />
    <rect
       style="opacity:1;fill:#ac9d93;fill-opacity:1;fill-rule:nonzero;stroke:none;stroke-width:0.26458332;stroke-linecap:square;stroke-linejoin:miter;stroke-miterlimit:4;stroke-dasharray:none;stroke-dashoffset:0;stroke-opacity:1;paint-order:fill markers stroke"
       id="rect3166"
       width="1.778"
       height="1.778"
       x="87.758949"
       y="180.02708"
       rx="14.6" />
    <rect
       y="185.10709"
       x="87.758949"
       height="1.778"
       width="1.778"
       id="rect3168"
       style="opacity:1;fill:#ac9d93;fill-opacity:1;fill-rule:nonzero;stroke:none;stroke-width:0.26458332;stroke-linecap:square;stroke-linejoin:miter;stroke-miterlimit:4;stroke-dasharray:none;stroke-dashoffset:0;stroke-opacity:1;paint-order:fill markers stroke"
       rx="14.6" />
    <rect
       style="opacity:1;fill:#ac9d93;fill-opacity:1;fill-rule:nonzero;stroke:none;stroke-width:0.26458332;stroke-linecap:square;stroke-linejoin:miter;stroke-miterlimit:4;stroke-dasharray:none;stroke-dashoffset:0;stroke-opacity:1;paint-order:fill markers stroke"
       id="rect3170"
       width="1.778"
       height="1.778"
       x="87.758949"
       y="190.18707"
       rx="14.6" />
    <rect
       y="190.18712"
       x="82.678947"
       height="1.778"
       width="1.778"
       id="rect3172"
       style="opacity:1;fill:#ac9d93;fill-opacity:1;fill-rule:nonzero;stroke:none;stroke-width:0.26458332;stroke-linecap:square;stroke-linejoin:miter;stroke-miterlimit:4;stroke-dasharray:none;stroke-dashoffset:0;stroke-opacity:1;paint-order:fill markers stroke"
       rx="14.6" />
    <rect
       style="opacity:1;fill:#ac9d93;fill-opacity:1;fill-rule:nonzero;stroke:none;stroke-width:0.26458332;stroke-linecap:square;stroke-linejoin:miter;stroke-miterlimit:4;stroke-dasharray:none;stroke-dashoffset:0;stroke-opacity:1;paint-order:fill markers stroke"
       id="rect3174"
       width="1.778"
       height="1.778"
       x="77.598953"
       y="190.18712"
       rx="14.6" />
    <rect
       y="190.18712"
       x="72.518951"
       height="1.778"
       width="1.778"
       id="rect3176"
       style="opacity:1;fill:#ac9d93;fill-opacity:1;fill-rule:nonzero;stroke:none;stroke-width:0.26458332;stroke-linecap:square;stroke-linejoin:miter;stroke-miterlimit:4;stroke-dasharray:none;stroke-dashoffset:0;stroke-opacity:1;paint-order:fill markers stroke"
       rx="14.6" />
    <g
       aria-label="matthew sarnoff
february 10, 2018"
       style="font-style:normal;font-variant:normal;font-weight:normal;font-stretch:normal;font-size:3.88055563px;line-height:89.99999762%;font-family:'Microgramma D Extended';-inkscape-font-specification:'Microgramma D Extended';letter-spacing:0px;word-spacing:0px;fill:#000000;fill-opacity:1;stroke:none;stroke-width:0.26458332px;stroke-linecap:butt;stroke-linejoin:miter;stroke-opacity:1"
       id="text180"
       transform="translate(-11.682053,-47.503898)">
      <path
         d="m 26.922053,238.56719 v 1.7967 h 0.28328 v -0.70626 c 0,-0.44626 0.02328,-0.60149 0.112536,-0.70238 0.104775,-0.11642 0.283281,-0.16298 0.644173,-0.16298 0.337608,0 0.512233,0.0388 0.613127,0.13194 0.07373,0.0737 0.09701,0.17074 0.09701,0.43074 v 1.00894 h 0.283281 v -0.70626 c 0,-0.4385 0.02716,-0.58984 0.128058,-0.70626 0.09701,-0.11642 0.267758,-0.1591 0.62865,-0.1591 0.593725,0 0.706261,0.0892 0.706261,0.56268 v 1.00894 h 0.283281 v -0.94685 c 0,-0.4191 -0.02328,-0.52388 -0.1397,-0.65582 -0.151342,-0.16298 -0.357011,-0.21731 -0.845961,-0.21731 -0.516114,0 -0.721784,0.0776 -0.8382,0.31433 -0.143581,-0.24448 -0.34537,-0.31433 -0.931334,-0.31433 -0.438502,0 -0.5588,0.0427 -0.737305,0.26 v -0.23672 z"
         style="font-size:3.88055563px;line-height:89.99999762%;stroke-width:0.26458332px"
         id="path203"
         inkscape:connector-curvature="0" />
      <path
         d="m 31.313993,239.10659 v -0.0233 c 0.0039,-0.24836 0.112536,-0.29104 0.729544,-0.29104 0.469548,0 0.632531,0.0349 0.733425,0.1591 0.06597,0.0776 0.08537,0.15522 0.08537,0.34149 v 0.19403 h -0.02328 c -0.124177,-0.17075 -0.248355,-0.19403 -0.985661,-0.19403 -0.380294,0 -0.551039,0.0155 -0.659694,0.0582 -0.186267,0.0699 -0.256117,0.20955 -0.256117,0.49283 0,0.21731 0.03881,0.32596 0.155222,0.4191 0.131939,0.10089 0.302684,0.12417 0.946856,0.12417 0.547158,0 0.679097,-0.0388 0.814917,-0.23283 h 0.01164 l -0.0039,0.20955 h 0.28328 v -0.94685 c 0,-0.42687 -0.02716,-0.54716 -0.151341,-0.67134 -0.151342,-0.1591 -0.360892,-0.20179 -0.970139,-0.20179 -0.779992,0 -1.008945,0.10866 -1.008945,0.48507 v 0.0776 z m 0.725664,0.4385 c 0.63253,0 0.803275,0.0621 0.803275,0.29493 0,0.24059 -0.143581,0.2988 -0.745067,0.2988 -0.442383,0 -0.636411,-0.0116 -0.717903,-0.0466 -0.100894,-0.0427 -0.1397,-0.11253 -0.1397,-0.24447 0,-0.11642 0.03492,-0.19403 0.104775,-0.2406 0.08149,-0.0504 0.217311,-0.0621 0.69462,-0.0621 z"
         style="font-size:3.88055563px;line-height:89.99999762%;stroke-width:0.26458332px"
         id="path205"
         inkscape:connector-curvature="0" />
      <path
         d="m 33.723272,238.12093 v 0.44626 h -0.442383 v 0.24448 h 0.442383 v 0.86924 c 0,0.28328 0.02328,0.39582 0.100895,0.50448 0.104775,0.14358 0.310444,0.20178 0.694619,0.20178 0.380295,0 0.574322,-0.0621 0.679097,-0.22119 0.07373,-0.10865 0.09701,-0.22507 0.09701,-0.50447 v -0.11254 h -0.28328 v 0.11254 c 0,0.22119 -0.01164,0.28716 -0.05433,0.35313 -0.06209,0.097 -0.159103,0.12418 -0.411339,0.12418 -0.271639,0 -0.399697,-0.0349 -0.473428,-0.12418 -0.05821,-0.0737 -0.05821,-0.0854 -0.06597,-0.42686 v -0.77611 h 1.2573 v -0.24448 h -1.2573 v -0.44626 z"
         style="font-size:3.88055563px;line-height:89.99999762%;stroke-width:0.26458332px"
         id="path207"
         inkscape:connector-curvature="0" />
      <path
         d="m 35.777238,238.12093 v 0.44626 h -0.442383 v 0.24448 h 0.442383 v 0.86924 c 0,0.28328 0.02328,0.39582 0.100895,0.50448 0.104775,0.14358 0.310444,0.20178 0.694619,0.20178 0.380295,0 0.574322,-0.0621 0.679097,-0.22119 0.07373,-0.10865 0.09701,-0.22507 0.09701,-0.50447 v -0.11254 h -0.28328 v 0.11254 c 0,0.22119 -0.01164,0.28716 -0.05433,0.35313 -0.06209,0.097 -0.159103,0.12418 -0.411339,0.12418 -0.271639,0 -0.399697,-0.0349 -0.473428,-0.12418 -0.05821,-0.0737 -0.05821,-0.0854 -0.06597,-0.42686 v -0.77611 h 1.2573 v -0.24448 h -1.2573 v -0.44626 z"
         style="font-size:3.88055563px;line-height:89.99999762%;stroke-width:0.26458332px"
         id="path209"
         inkscape:connector-curvature="0" />
      <path
         d="m 37.597643,237.77556 v 2.58833 h 0.283281 v -0.84596 c 0,-0.34149 0.01552,-0.42298 0.112536,-0.53164 0.120297,-0.1397 0.34925,-0.1979 0.787753,-0.1979 0.388055,0 0.566561,0.0427 0.659694,0.15522 0.08537,0.10477 0.100895,0.20179 0.100895,0.57432 v 0.84596 h 0.28328 v -0.93521 c 0,-0.42686 -0.03104,-0.56656 -0.151341,-0.69074 -0.1397,-0.14746 -0.360892,-0.19791 -0.857603,-0.19791 -0.585964,0 -0.791634,0.066 -0.911931,0.29104 h -0.02328 v -1.05551 z"
         style="font-size:3.88055563px;line-height:89.99999762%;stroke-width:0.26458332px"
         id="path211"
         inkscape:connector-curvature="0" />
      <path
         d="m 42.092478,239.80897 c -0.01164,0.11642 -0.0194,0.14746 -0.06597,0.19403 -0.09313,0.10477 -0.252236,0.13582 -0.659695,0.13582 -0.539397,0 -0.733425,-0.0349 -0.84208,-0.14746 -0.08537,-0.0892 -0.124178,-0.22895 -0.131939,-0.46179 h 2.002367 c -0.0078,-0.42686 -0.04657,-0.58984 -0.182387,-0.74895 -0.166863,-0.18626 -0.380294,-0.23671 -1.001183,-0.23671 -0.434622,0 -0.640292,0.0272 -0.787753,0.10866 -0.232833,0.12805 -0.337608,0.38029 -0.337608,0.81879 0,0.36866 0.08537,0.61701 0.256117,0.74895 0.159102,0.12418 0.434622,0.16686 1.055511,0.16686 0.729544,0 0.98178,-0.14746 0.993422,-0.5782 z m -1.691922,-0.52387 c 0.03104,-0.3997 0.182386,-0.49283 0.803275,-0.49283 0.6985,0 0.873125,0.097 0.877006,0.49283 z"
         style="font-size:3.88055563px;line-height:89.99999762%;stroke-width:0.26458332px"
         id="path213"
         inkscape:connector-curvature="0" />
      <path
         d="m 42.420507,238.56719 0.830439,1.7967 h 0.4191 l 0.547158,-1.52894 h 0.02716 l 0.554919,1.52894 h 0.422981 l 0.834319,-1.7967 H 45.72674 l -0.690739,1.5367 h -0.03104 l -0.551039,-1.5367 h -0.446264 l -0.543278,1.5367 h -0.02716 l -0.6985,-1.5367 z"
         style="font-size:3.88055563px;line-height:89.99999762%;stroke-width:0.26458332px"
         id="path215"
         inkscape:connector-curvature="0" />
      <path
         d="m 47.07778,239.73912 v 0.0931 c 0,0.22119 0.04269,0.33372 0.166864,0.42298 0.13582,0.10089 0.380295,0.13193 0.993422,0.13193 0.512234,0 0.772231,-0.0272 0.900289,-0.097 0.147461,-0.0815 0.213431,-0.21343 0.213431,-0.43462 0,-0.35313 -0.166864,-0.50835 -0.578203,-0.52388 -0.186267,-0.008 -0.706261,-0.0194 -0.826558,-0.0155 -0.430742,0.008 -0.535517,-0.0388 -0.535517,-0.23671 0,-0.0931 0.02716,-0.15911 0.08149,-0.19791 0.08149,-0.0621 0.318205,-0.0892 0.717903,-0.0892 0.426861,0 0.640291,0.031 0.717902,0.11253 0.04269,0.0388 0.05433,0.0854 0.05433,0.21731 h 0.302683 c 0,-0.21343 -0.01552,-0.27164 -0.08149,-0.35313 -0.131939,-0.17074 -0.376414,-0.22507 -0.981781,-0.22507 -0.527755,0 -0.795514,0.0349 -0.923572,0.11642 -0.128058,0.0854 -0.190147,0.22119 -0.190147,0.41522 0,0.36089 0.166864,0.48895 0.640291,0.49671 0.686859,0.008 0.745067,0.008 0.822678,0.008 0.360892,-0.004 0.477309,0.066 0.477309,0.2794 0,0.0892 -0.02328,0.15134 -0.07761,0.19403 -0.08537,0.0699 -0.225072,0.0854 -0.721783,0.0854 -0.807155,0 -0.869244,-0.0233 -0.865364,-0.34925 l -0.0039,-0.0504 z"
         style="font-size:3.88055563px;line-height:89.99999762%;stroke-width:0.26458332px"
         id="path217"
         inkscape:connector-curvature="0" />
      <path
         d="m 49.920954,239.10659 v -0.0233 c 0.0039,-0.24836 0.112536,-0.29104 0.729544,-0.29104 0.469547,0 0.632531,0.0349 0.733425,0.1591 0.06597,0.0776 0.08537,0.15522 0.08537,0.34149 v 0.19403 h -0.02328 c -0.124178,-0.17075 -0.248355,-0.19403 -0.985661,-0.19403 -0.380295,0 -0.551039,0.0155 -0.659695,0.0582 -0.186266,0.0699 -0.256116,0.20955 -0.256116,0.49283 0,0.21731 0.03881,0.32596 0.155222,0.4191 0.131939,0.10089 0.302683,0.12417 0.946856,0.12417 0.547158,0 0.679097,-0.0388 0.814916,-0.23283 h 0.01164 l -0.0039,0.20955 h 0.283281 v -0.94685 c 0,-0.42687 -0.02716,-0.54716 -0.151342,-0.67134 -0.151341,-0.1591 -0.360891,-0.20179 -0.970139,-0.20179 -0.779991,0 -1.008944,0.10866 -1.008944,0.48507 v 0.0776 z m 0.725664,0.4385 c 0.63253,0 0.803275,0.0621 0.803275,0.29493 0,0.24059 -0.143581,0.2988 -0.745067,0.2988 -0.442383,0 -0.636411,-0.0116 -0.717903,-0.0466 -0.100894,-0.0427 -0.1397,-0.11253 -0.1397,-0.24447 0,-0.11642 0.03493,-0.19403 0.104775,-0.2406 0.08149,-0.0504 0.217311,-0.0621 0.69462,-0.0621 z"
         style="font-size:3.88055563px;line-height:89.99999762%;stroke-width:0.26458332px"
         id="path219"
         inkscape:connector-curvature="0" />
      <path
         d="m 52.054714,238.56719 v 1.7967 h 0.283281 v -0.83044 c 0,-0.63253 0.120297,-0.74118 0.803275,-0.74118 0.442383,0 0.539397,0.0815 0.539397,0.45402 v 0.12806 h 0.291042 v -0.18627 c 0,-0.23283 -0.06209,-0.40357 -0.182386,-0.50835 -0.120297,-0.10477 -0.263878,-0.13582 -0.617008,-0.13582 -0.341489,0 -0.492831,0.0155 -0.601487,0.0699 -0.09701,0.0466 -0.166864,0.10866 -0.21343,0.19403 h -0.0194 v -0.2406 z"
         style="font-size:3.88055563px;line-height:89.99999762%;stroke-width:0.26458332px"
         id="path221"
         inkscape:connector-curvature="0" />
      <path
         d="m 54.169314,238.56719 v 1.7967 h 0.28328 v -0.83044 c 0,-0.34149 0.01552,-0.42686 0.104775,-0.53163 0.124178,-0.15135 0.34925,-0.20955 0.791634,-0.20955 0.391936,0 0.570441,0.0427 0.663575,0.15522 0.08149,0.0931 0.100894,0.20179 0.100894,0.52387 v 0.89253 h 0.283281 v -1.01282 c 0,-0.33761 -0.03881,-0.48895 -0.147461,-0.60925 -0.1397,-0.15134 -0.353131,-0.19791 -0.869245,-0.19791 -0.589844,0 -0.787753,0.0621 -0.904169,0.29492 h -0.02328 v -0.27164 z"
         style="font-size:3.88055563px;line-height:89.99999762%;stroke-width:0.26458332px"
         id="path223"
         inkscape:connector-curvature="0" />
      <path
         d="m 57.756462,238.54391 c -0.407458,0 -0.609247,0.0272 -0.756708,0.10478 -0.236714,0.12417 -0.34537,0.38029 -0.34537,0.80715 0,0.44238 0.08925,0.67134 0.318206,0.80328 0.162983,0.097 0.384175,0.12805 0.91193,0.12805 0.457906,0 0.659695,-0.0272 0.814917,-0.11641 0.225072,-0.12806 0.322086,-0.37254 0.322086,-0.80716 0,-0.4191 -0.08925,-0.65193 -0.306564,-0.79163 -0.155222,-0.097 -0.376414,-0.12806 -0.958497,-0.12806 z m 0.04657,0.24836 c 0.364772,0 0.5588,0.0194 0.667455,0.0699 0.182387,0.0815 0.248356,0.24059 0.248356,0.59372 0,0.31433 -0.04657,0.47343 -0.162983,0.56656 -0.116417,0.0893 -0.27552,0.11642 -0.69462,0.11642 -0.333728,0 -0.504472,-0.0155 -0.620889,-0.0582 -0.20955,-0.0737 -0.28328,-0.23283 -0.28328,-0.60537 0,-0.5782 0.128058,-0.68297 0.845961,-0.68297 z"
         style="font-size:3.88055563px;line-height:89.99999762%;stroke-width:0.26458332px"
         id="path225"
         inkscape:connector-curvature="0" />
      <path
         d="m 59.110474,238.81167 h 0.403578 v 1.55222 h 0.283281 v -1.55222 h 0.90805 v -0.24448 h -0.900289 l 0.0039,-0.0621 c 0,-0.40746 0.08149,-0.47343 0.589845,-0.48119 l 0.306564,-0.0117 v -0.24447 l -0.325967,0.0116 c -0.710142,0.0155 -0.865364,0.1591 -0.865364,0.78775 h -0.403578 z"
         style="font-size:3.88055563px;line-height:89.99999762%;stroke-width:0.26458332px"
         id="path227"
         inkscape:connector-curvature="0" />
      <path
         d="m 60.800637,238.81167 h 0.403578 v 1.55222 h 0.28328 v -1.55222 h 0.90805 v -0.24448 h -0.900289 l 0.0039,-0.0621 c 0,-0.40746 0.08149,-0.47343 0.589844,-0.48119 l 0.306564,-0.0117 v -0.24447 l -0.325966,0.0116 c -0.710142,0.0155 -0.865364,0.1591 -0.865364,0.78775 h -0.403578 z"
         style="font-size:3.88055563px;line-height:89.99999762%;stroke-width:0.26458332px"
         id="path229"
         inkscape:connector-curvature="0" />
      <path
         d="m 26.739667,242.30417 h 0.403577 v 1.55222 h 0.283281 v -1.55222 h 0.90805 v -0.24448 h -0.900289 l 0.0039,-0.0621 c 0,-0.40746 0.08149,-0.47343 0.589844,-0.48119 l 0.306564,-0.0117 v -0.24447 l -0.325967,0.0116 c -0.710141,0.0155 -0.865364,0.1591 -0.865364,0.78775 h -0.403577 z"
         style="font-size:3.88055563px;line-height:89.99999762%;stroke-width:0.26458332px"
         id="path231"
         inkscape:connector-curvature="0" />
      <path
         d="m 30.450812,243.30147 c -0.01164,0.11642 -0.0194,0.14746 -0.06597,0.19403 -0.09313,0.10477 -0.252236,0.13582 -0.659694,0.13582 -0.539397,0 -0.733425,-0.0349 -0.842081,-0.14746 -0.08537,-0.0892 -0.124178,-0.22895 -0.131939,-0.46179 h 2.002367 c -0.0078,-0.42686 -0.04657,-0.58984 -0.182386,-0.74895 -0.166864,-0.18626 -0.380295,-0.23671 -1.001183,-0.23671 -0.434623,0 -0.640292,0.0272 -0.787753,0.10866 -0.232834,0.12805 -0.337609,0.38029 -0.337609,0.81879 0,0.36866 0.08537,0.61701 0.256117,0.74895 0.159103,0.12418 0.434622,0.16686 1.055511,0.16686 0.729545,0 0.981781,-0.14746 0.993422,-0.5782 z m -1.691923,-0.52387 c 0.03104,-0.3997 0.182387,-0.49283 0.803275,-0.49283 0.6985,0 0.873125,0.097 0.877006,0.49283 z"
         style="font-size:3.88055563px;line-height:89.99999762%;stroke-width:0.26458332px"
         id="path233"
         inkscape:connector-curvature="0" />
      <path
         d="m 31.018888,241.26806 v 2.58833 h 0.2794 v -0.22895 h 0.01552 c 0.135819,0.20955 0.28328,0.25223 0.853722,0.25223 0.442383,0 0.624769,-0.0194 0.77223,-0.0776 0.287162,-0.11641 0.407459,-0.35701 0.407459,-0.81879 0,-0.42298 -0.07761,-0.64418 -0.271639,-0.79552 -0.162983,-0.12418 -0.34537,-0.15522 -0.954617,-0.15522 -0.512233,0 -0.671336,0.0466 -0.799394,0.24059 h -0.0194 v -1.00506 z m 1.105959,1.01283 c 0.376414,0 0.566561,0.0194 0.675216,0.0699 0.174625,0.0815 0.244475,0.25223 0.244475,0.61312 0,0.54716 -0.1397,0.66746 -0.776111,0.66746 -0.415219,0 -0.62865,-0.0194 -0.737305,-0.0737 -0.178506,-0.0815 -0.236714,-0.22895 -0.236714,-0.59761 0,-0.5782 0.124178,-0.67909 0.830439,-0.67909 z"
         style="font-size:3.88055563px;line-height:89.99999762%;stroke-width:0.26458332px"
         id="path235"
         inkscape:connector-curvature="0" />
      <path
         d="m 33.622074,242.05969 v 1.7967 h 0.283281 v -0.83044 c 0,-0.63253 0.120297,-0.74118 0.803275,-0.74118 0.442383,0 0.539397,0.0815 0.539397,0.45402 v 0.12806 h 0.291042 v -0.18627 c 0,-0.23283 -0.06209,-0.40357 -0.182386,-0.50835 -0.120297,-0.10477 -0.263878,-0.13582 -0.617009,-0.13582 -0.341488,0 -0.49283,0.0155 -0.601486,0.0699 -0.09701,0.0466 -0.166864,0.10866 -0.21343,0.19403 h -0.0194 v -0.2406 z"
         style="font-size:3.88055563px;line-height:89.99999762%;stroke-width:0.26458332px"
         id="path237"
         inkscape:connector-curvature="0" />
      <path
         d="m 35.732612,242.05969 v 0.99343 c 0,0.37253 0.04657,0.54327 0.174625,0.65581 0.1397,0.12418 0.368653,0.17074 0.811036,0.17074 0.5588,0 0.745067,-0.0621 0.888647,-0.29104 h 0.01552 v 0.26776 h 0.283281 v -1.7967 H 37.62244 v 0.88865 c 0,0.26 -0.02328,0.3803 -0.100894,0.46955 -0.120297,0.15522 -0.341489,0.21343 -0.772231,0.21343 -0.333727,0 -0.500591,-0.0349 -0.601486,-0.1203 -0.104775,-0.0931 -0.131939,-0.20567 -0.131939,-0.54328 v -0.90805 z"
         style="font-size:3.88055563px;line-height:89.99999762%;stroke-width:0.26458332px"
         id="path239"
         inkscape:connector-curvature="0" />
      <path
         d="m 38.529401,242.59909 v -0.0233 c 0.0039,-0.24836 0.112536,-0.29104 0.729544,-0.29104 0.469547,0 0.632531,0.0349 0.733425,0.1591 0.06597,0.0776 0.08537,0.15522 0.08537,0.34149 v 0.19403 h -0.02328 c -0.124178,-0.17075 -0.248355,-0.19403 -0.985661,-0.19403 -0.380294,0 -0.551039,0.0155 -0.659694,0.0582 -0.186267,0.0699 -0.256117,0.20955 -0.256117,0.49283 0,0.21731 0.0388,0.32596 0.155222,0.4191 0.131939,0.10089 0.302683,0.12417 0.946856,0.12417 0.547158,0 0.679097,-0.0388 0.814916,-0.23283 h 0.01164 l -0.0039,0.20955 h 0.283281 v -0.94685 c 0,-0.42687 -0.02716,-0.54716 -0.151342,-0.67134 -0.151341,-0.1591 -0.360891,-0.20179 -0.970139,-0.20179 -0.779991,0 -1.008944,0.10866 -1.008944,0.48507 v 0.0776 z m 0.725664,0.4385 c 0.63253,0 0.803275,0.0621 0.803275,0.29493 0,0.24059 -0.143581,0.2988 -0.745067,0.2988 -0.442383,0 -0.636411,-0.0116 -0.717903,-0.0466 -0.100894,-0.0427 -0.1397,-0.11253 -0.1397,-0.24447 0,-0.11642 0.03493,-0.19403 0.104775,-0.2406 0.08149,-0.0504 0.217311,-0.0621 0.69462,-0.0621 z"
         style="font-size:3.88055563px;line-height:89.99999762%;stroke-width:0.26458332px"
         id="path241"
         inkscape:connector-curvature="0" />
      <path
         d="m 40.663161,242.05969 v 1.7967 h 0.28328 v -0.83044 c 0,-0.63253 0.120297,-0.74118 0.803275,-0.74118 0.442384,0 0.539397,0.0815 0.539397,0.45402 v 0.12806 h 0.291042 v -0.18627 c 0,-0.23283 -0.06209,-0.40357 -0.182386,-0.50835 -0.120297,-0.10477 -0.263878,-0.13582 -0.617008,-0.13582 -0.341489,0 -0.492831,0.0155 -0.601486,0.0699 -0.09701,0.0466 -0.166864,0.10866 -0.213431,0.19403 h -0.0194 v -0.2406 z"
         style="font-size:3.88055563px;line-height:89.99999762%;stroke-width:0.26458332px"
         id="path243"
         inkscape:connector-curvature="0" />
      <path
         d="m 42.591312,242.05969 1.012825,1.7967 h 0.09701 c -0.170745,0.31433 -0.267759,0.37253 -0.644172,0.37253 -0.05433,0 -0.07373,0 -0.131939,-0.008 v 0.26 c 0.06209,0.004 0.09701,0.004 0.159102,0.004 0.294923,0 0.430742,-0.031 0.566562,-0.12418 0.14358,-0.10089 0.236713,-0.22895 0.442383,-0.62477 l 0.877005,-1.6764 h -0.333727 l -0.807156,1.56775 h -0.03493 l -0.869244,-1.56775 z"
         style="font-size:3.88055563px;line-height:89.99999762%;stroke-width:0.26458332px"
         id="path245"
         inkscape:connector-curvature="0" />
      <path
         d="m 47.429395,241.26806 -0.919691,0.87313 0.205669,0.23283 0.83432,-0.78387 h 0.120297 v 2.26624 h 0.337608 v -2.58833 z"
         style="font-size:3.88055563px;line-height:89.99999762%;stroke-width:0.26458332px"
         id="path247"
         inkscape:connector-curvature="0" />
      <path
         d="m 50.211147,241.2603 c -0.477308,0 -0.752828,0.0194 -0.946856,0.0737 -0.21343,0.0543 -0.34925,0.20567 -0.395816,0.4385 -0.03492,0.18239 -0.05821,0.47343 -0.05821,0.79552 0,0.66745 0.04269,0.90805 0.194028,1.06715 0.159103,0.17074 0.481189,0.22895 1.249539,0.22895 0.197908,0 0.527756,-0.008 0.675217,-0.0194 0.368653,-0.0233 0.527755,-0.0699 0.644172,-0.18627 0.151342,-0.15134 0.20955,-0.46566 0.20955,-1.1564 0,-0.34149 -0.01552,-0.57432 -0.04657,-0.73343 -0.05045,-0.23283 -0.217311,-0.39969 -0.457905,-0.44626 -0.197909,-0.0388 -0.570442,-0.0621 -1.067153,-0.0621 z m 0.01164,0.30268 c 0.760589,0 1.005064,0.031 1.102077,0.13582 0.08149,0.0931 0.120298,0.3803 0.120298,0.92357 0,0.45015 -0.04269,0.71403 -0.13582,0.80328 -0.09701,0.097 -0.391936,0.13582 -1.063272,0.13582 -0.578203,0 -0.880886,-0.0427 -0.974019,-0.14358 -0.08537,-0.0854 -0.124178,-0.34537 -0.124178,-0.81104 0,-0.1397 0.01164,-0.39581 0.02328,-0.52775 0.0194,-0.22896 0.05045,-0.32985 0.112536,-0.39194 0.09313,-0.0931 0.329847,-0.12418 0.939095,-0.12418 z"
         style="font-size:3.88055563px;line-height:89.99999762%;stroke-width:0.26458332px"
         id="path249"
         inkscape:connector-curvature="0" />
      <path
         d="m 52.205692,243.42177 v 0.43462 h 0.159102 v 0.0427 c 0,0.14746 -0.03881,0.21343 -0.124177,0.21343 h -0.08149 v 0.22507 h 0.06985 c 0.135819,0 0.263878,-0.0427 0.322086,-0.10866 0.05821,-0.066 0.07761,-0.1591 0.07761,-0.37253 v -0.43462 z"
         style="font-size:3.88055563px;line-height:89.99999762%;stroke-width:0.26458332px"
         id="path251"
         inkscape:connector-curvature="0" />
      <path
         d="m 56.905044,243.56147 h -2.526242 v -0.0893 c 0,-0.42686 0.08925,-0.50836 0.582083,-0.5394 1.338792,-0.0699 1.528939,-0.1009 1.730728,-0.27552 0.143581,-0.12806 0.194028,-0.2794 0.194028,-0.59761 0,-0.16686 -0.0194,-0.32596 -0.05433,-0.41133 -0.06597,-0.17075 -0.228953,-0.29881 -0.434622,-0.33373 -0.162983,-0.0272 -0.706261,-0.0582 -1.071033,-0.0582 -0.263878,0 -0.535517,0.0155 -0.686859,0.0388 -0.21343,0.0349 -0.341489,0.1009 -0.446264,0.23284 -0.112536,0.1397 -0.135819,0.26776 -0.135819,0.72954 h 0.329847 c 0,-0.25999 0.0039,-0.32208 0.01552,-0.38029 0.02328,-0.14746 0.09313,-0.22119 0.240595,-0.25612 0.124178,-0.031 0.508353,-0.0582 0.830439,-0.0582 0.461786,0 0.779991,0.031 0.904169,0.0893 0.131939,0.0621 0.190147,0.1979 0.190147,0.44626 0,0.21343 -0.05433,0.33373 -0.186266,0.3997 -0.116417,0.0543 -0.271639,0.0737 -0.877006,0.10865 -0.8382,0.0504 -0.958497,0.066 -1.133122,0.15134 -0.252236,0.12418 -0.333728,0.32209 -0.333728,0.8188 0,0.0892 0.0039,0.18239 0.0078,0.2794 h 2.85997 z"
         style="font-size:3.88055563px;line-height:89.99999762%;stroke-width:0.26458332px"
         id="path253"
         inkscape:connector-curvature="0" />
      <path
         d="m 58.624071,241.2603 c -0.477308,0 -0.752828,0.0194 -0.946856,0.0737 -0.21343,0.0543 -0.34925,0.20567 -0.395816,0.4385 -0.03493,0.18239 -0.05821,0.47343 -0.05821,0.79552 0,0.66745 0.04269,0.90805 0.194028,1.06715 0.159103,0.17074 0.481189,0.22895 1.249539,0.22895 0.197908,0 0.527756,-0.008 0.675217,-0.0194 0.368652,-0.0233 0.527755,-0.0699 0.644172,-0.18627 0.151342,-0.15134 0.20955,-0.46566 0.20955,-1.1564 0,-0.34149 -0.01552,-0.57432 -0.04657,-0.73343 -0.05045,-0.23283 -0.217311,-0.39969 -0.457905,-0.44626 -0.197909,-0.0388 -0.570442,-0.0621 -1.067153,-0.0621 z m 0.01164,0.30268 c 0.760588,0 1.005063,0.031 1.102077,0.13582 0.08149,0.0931 0.120298,0.3803 0.120298,0.92357 0,0.45015 -0.04269,0.71403 -0.13582,0.80328 -0.09701,0.097 -0.391936,0.13582 -1.063272,0.13582 -0.578203,0 -0.880886,-0.0427 -0.97402,-0.14358 -0.08537,-0.0854 -0.124177,-0.34537 -0.124177,-0.81104 0,-0.1397 0.01164,-0.39581 0.02328,-0.52775 0.0194,-0.22896 0.05045,-0.32985 0.112536,-0.39194 0.09313,-0.0931 0.329847,-0.12418 0.939095,-0.12418 z"
         style="font-size:3.88055563px;line-height:89.99999762%;stroke-width:0.26458332px"
         id="path255"
         inkscape:connector-curvature="0" />
      <path
         d="m 61.625255,241.26806 -0.919691,0.87313 0.205669,0.23283 0.834319,-0.78387 h 0.120298 v 2.26624 h 0.337608 v -2.58833 z"
         style="font-size:3.88055563px;line-height:89.99999762%;stroke-width:0.26458332px"
         id="path257"
         inkscape:connector-curvature="0" />
      <path
         d="m 65.521274,242.50984 c 0.116417,-0.0349 0.151342,-0.0543 0.194028,-0.0854 0.108655,-0.0815 0.159103,-0.23284 0.159103,-0.47343 0,-0.26388 -0.05433,-0.42298 -0.190148,-0.5394 -0.147461,-0.12806 -0.341488,-0.15134 -1.323269,-0.15134 -0.589844,0 -0.888647,0.0272 -1.036108,0.0931 -0.182386,0.0854 -0.267759,0.28328 -0.267759,0.62089 0,0.33761 0.09701,0.48119 0.372534,0.53552 -0.322086,0.0737 -0.411339,0.21343 -0.411339,0.64805 0,0.61701 0.182386,0.70626 1.424164,0.70626 1.272822,0 1.478491,-0.10089 1.478491,-0.73342 0,-0.40358 -0.08149,-0.53164 -0.399697,-0.62089 z m -1.168047,-0.94686 c 0.620889,0 0.950736,0.0155 1.032228,0.0504 0.100894,0.0466 0.14358,0.15522 0.14358,0.35701 0,0.24448 -0.05821,0.34925 -0.217311,0.3803 -0.147461,0.031 -0.314325,0.0349 -1.036108,0.0349 -0.814917,0 -0.873125,-0.0272 -0.873125,-0.40358 0,-0.18238 0.03881,-0.2988 0.120297,-0.35313 0.08149,-0.0504 0.252236,-0.066 0.830439,-0.066 z m 0.124178,1.0982 c 1.024466,0 1.098197,0.031 1.098197,0.45014 0,0.20955 -0.02328,0.29105 -0.108656,0.34925 -0.09701,0.0699 -0.391936,0.1009 -0.98178,0.1009 -0.446264,0 -0.853722,-0.0233 -0.954617,-0.0543 -0.128058,-0.0427 -0.166864,-0.13194 -0.166864,-0.38029 0,-0.21731 0.03881,-0.32597 0.13582,-0.38418 0.100894,-0.0582 0.357011,-0.0815 0.9779,-0.0815 z"
         style="font-size:3.88055563px;line-height:89.99999762%;stroke-width:0.26458332px"
         id="path259"
         inkscape:connector-curvature="0" />
    </g>
    <g
       aria-label="five volts dc
two amps"
       style="font-style:normal;font-variant:normal;font-weight:normal;font-stretch:normal;font-size:3.88055563px;line-height:89.99999762%;font-family:'Microgramma D Extended';-inkscape-font-specification:'Microgramma D Extended';text-align:end;letter-spacing:0px;word-spacing:0px;text-anchor:end;fill:#000000;fill-opacity:1;stroke:none;stroke-width:0.26458332px;stroke-linecap:butt;stroke-linejoin:miter;stroke-opacity:1"
       id="text188"
       transform="translate(-11.682053,-47.503898)">
      <path
         d="m 106.8421,238.79226 h 0.40358 v 1.55222 h 0.28328 v -1.55222 h 0.90805 v -0.24447 h -0.90029 l 0.004,-0.0621 c 0,-0.40746 0.0815,-0.47343 0.58984,-0.48119 l 0.30657,-0.0116 v -0.24448 l -0.32597,0.0116 c -0.71014,0.0155 -0.86536,0.15911 -0.86536,0.78776 h -0.40358 z"
         style="font-size:3.88055563px;line-height:89.99999762%;text-align:end;text-anchor:end;stroke-width:0.26458332px"
         id="path262"
         inkscape:connector-curvature="0" />
      <path
         d="m 108.63534,238.54779 v 1.79669 h 0.28328 v -1.79669 z m 0,-0.79164 v 0.33761 h 0.28328 v -0.33761 z"
         style="font-size:3.88055563px;line-height:89.99999762%;text-align:end;text-anchor:end;stroke-width:0.26458332px"
         id="path264"
         inkscape:connector-curvature="0" />
      <path
         d="m 109.03953,238.54779 1.0361,1.79669 h 0.36866 l 1.04775,-1.79669 h -0.34537 l -0.87313,1.53281 h -0.031 l -0.86925,-1.53281 z"
         style="font-size:3.88055563px;line-height:89.99999762%;text-align:end;text-anchor:end;stroke-width:0.26458332px"
         id="path266"
         inkscape:connector-curvature="0" />
      <path
         d="m 113.5243,239.78956 c -0.0117,0.11642 -0.0194,0.14746 -0.066,0.19403 -0.0931,0.10478 -0.25224,0.13582 -0.6597,0.13582 -0.5394,0 -0.73342,-0.0349 -0.84208,-0.14746 -0.0854,-0.0892 -0.12418,-0.22895 -0.13194,-0.46179 h 2.00237 c -0.008,-0.42686 -0.0466,-0.58984 -0.18239,-0.74894 -0.16686,-0.18627 -0.38029,-0.23672 -1.00118,-0.23672 -0.43462,0 -0.64029,0.0272 -0.78775,0.10866 -0.23284,0.12806 -0.33761,0.38029 -0.33761,0.81879 0,0.36866 0.0854,0.61701 0.25611,0.74895 0.15911,0.12418 0.43463,0.16687 1.05552,0.16687 0.72954,0 0.98178,-0.14747 0.99342,-0.57821 z m -1.69193,-0.52387 c 0.0311,-0.3997 0.18239,-0.49283 0.80328,-0.49283 0.6985,0 0.87312,0.097 0.877,0.49283 z"
         style="font-size:3.88055563px;line-height:89.99999762%;text-align:end;text-anchor:end;stroke-width:0.26458332px"
         id="path268"
         inkscape:connector-curvature="0" />
      <path
         d="m 114.8452,238.54779 1.03611,1.79669 h 0.36865 l 1.04775,-1.79669 h -0.34537 l -0.87312,1.53281 h -0.0311 l -0.86924,-1.53281 z"
         style="font-size:3.88055563px;line-height:89.99999762%;text-align:end;text-anchor:end;stroke-width:0.26458332px"
         id="path270"
         inkscape:connector-curvature="0" />
      <path
         d="m 118.4258,238.5245 c -0.40746,0 -0.60925,0.0272 -0.75671,0.10478 -0.23671,0.12417 -0.34537,0.38029 -0.34537,0.80715 0,0.44239 0.0893,0.67134 0.31821,0.80328 0.16298,0.097 0.38417,0.12806 0.91193,0.12806 0.4579,0 0.65969,-0.0272 0.81492,-0.11642 0.22507,-0.12806 0.32208,-0.37253 0.32208,-0.80716 0,-0.4191 -0.0893,-0.65193 -0.30656,-0.79163 -0.15522,-0.097 -0.37642,-0.12806 -0.9585,-0.12806 z m 0.0466,0.24836 c 0.36477,0 0.5588,0.0194 0.66745,0.0699 0.18239,0.0815 0.24836,0.24059 0.24836,0.59372 0,0.31433 -0.0466,0.47343 -0.16298,0.56656 -0.11642,0.0893 -0.27552,0.11642 -0.69462,0.11642 -0.33373,0 -0.50448,-0.0155 -0.62089,-0.0582 -0.20955,-0.0737 -0.28328,-0.23283 -0.28328,-0.60536 0,-0.57821 0.12805,-0.68298 0.84596,-0.68298 z"
         style="font-size:3.88055563px;line-height:89.99999762%;text-align:end;text-anchor:end;stroke-width:0.26458332px"
         id="path272"
         inkscape:connector-curvature="0" />
      <path
         d="m 119.97384,237.75615 v 2.58833 h 0.28328 v -2.58833 z"
         style="font-size:3.88055563px;line-height:89.99999762%;text-align:end;text-anchor:end;stroke-width:0.26458332px"
         id="path274"
         inkscape:connector-curvature="0" />
      <path
         d="m 120.85921,238.10152 v 0.44627 h -0.44238 v 0.24447 h 0.44238 v 0.86924 c 0,0.28329 0.0233,0.39582 0.1009,0.50448 0.10477,0.14358 0.31044,0.20179 0.69462,0.20179 0.38029,0 0.57432,-0.0621 0.67909,-0.2212 0.0737,-0.10865 0.097,-0.22507 0.097,-0.50447 v -0.11253 h -0.28328 v 0.11253 c 0,0.22119 -0.0116,0.28716 -0.0543,0.35313 -0.0621,0.097 -0.1591,0.12418 -0.41134,0.12418 -0.27164,0 -0.3997,-0.0349 -0.47343,-0.12418 -0.0582,-0.0737 -0.0582,-0.0854 -0.066,-0.42686 v -0.77611 h 1.2573 v -0.24447 h -1.2573 v -0.44627 z"
         style="font-size:3.88055563px;line-height:89.99999762%;text-align:end;text-anchor:end;stroke-width:0.26458332px"
         id="path276"
         inkscape:connector-curvature="0" />
      <path
         d="m 122.58721,239.71971 v 0.0931 c 0,0.22119 0.0427,0.33372 0.16687,0.42298 0.13582,0.10089 0.38029,0.13194 0.99342,0.13194 0.51223,0 0.77223,-0.0272 0.90029,-0.097 0.14746,-0.0815 0.21343,-0.21343 0.21343,-0.43462 0,-0.35313 -0.16687,-0.50835 -0.5782,-0.52388 -0.18627,-0.008 -0.70627,-0.0194 -0.82656,-0.0155 -0.43074,0.008 -0.53552,-0.0388 -0.53552,-0.23671 0,-0.0931 0.0272,-0.1591 0.0815,-0.19791 0.0815,-0.0621 0.31821,-0.0892 0.7179,-0.0892 0.42687,0 0.6403,0.031 0.71791,0.11253 0.0427,0.0388 0.0543,0.0854 0.0543,0.21731 h 0.30268 c 0,-0.21343 -0.0155,-0.27163 -0.0815,-0.35313 -0.13194,-0.17074 -0.37642,-0.22507 -0.98178,-0.22507 -0.52776,0 -0.79552,0.0349 -0.92358,0.11642 -0.12805,0.0854 -0.19014,0.22119 -0.19014,0.41522 0,0.36089 0.16686,0.48895 0.64029,0.49671 0.68686,0.008 0.74507,0.008 0.82268,0.008 0.36089,-0.004 0.4773,0.066 0.4773,0.2794 0,0.0892 -0.0233,0.15134 -0.0776,0.19403 -0.0854,0.0699 -0.22507,0.0854 -0.72178,0.0854 -0.80716,0 -0.86924,-0.0233 -0.86536,-0.34925 l -0.004,-0.0505 z"
         style="font-size:3.88055563px;line-height:89.99999762%;text-align:end;text-anchor:end;stroke-width:0.26458332px"
         id="path278"
         inkscape:connector-curvature="0" />
      <path
         d="m 128.37573,237.75615 h -0.28328 v 1.00507 h -0.0194 c -0.12417,-0.19015 -0.29104,-0.2406 -0.78775,-0.2406 -0.5394,0 -0.76059,0.0272 -0.90805,0.11254 -0.22895,0.13194 -0.32985,0.38417 -0.32985,0.81879 0,0.42299 0.0854,0.64418 0.29881,0.78388 0.1591,0.10089 0.36865,0.13194 0.86924,0.13194 0.5782,0 0.72955,-0.0427 0.86537,-0.25224 h 0.0155 v 0.22895 h 0.2794 z m -1.11372,1.01283 c 0.7179,0 0.84208,0.10477 0.84208,0.69462 0,0.2988 -0.0505,0.45402 -0.17851,0.54715 -0.11253,0.0815 -0.30268,0.10866 -0.7567,0.10866 -0.68298,0 -0.8188,-0.10866 -0.8188,-0.66746 0,-0.3182 0.0504,-0.48118 0.1785,-0.57432 0.11254,-0.0815 0.29105,-0.10865 0.73343,-0.10865 z"
         style="font-size:3.88055563px;line-height:89.99999762%;text-align:end;text-anchor:end;stroke-width:0.26458332px"
         id="path280"
         inkscape:connector-curvature="0" />
      <path
         d="m 130.62578,239.69255 c -0.0116,0.34925 -0.1397,0.42298 -0.72178,0.42298 -0.37642,0 -0.59373,-0.0233 -0.70626,-0.0776 -0.16299,-0.0737 -0.23284,-0.24836 -0.23284,-0.57044 0,-0.58597 0.12806,-0.69462 0.82268,-0.69462 0.6597,0 0.81492,0.0776 0.82268,0.41522 h 0.29492 c -0.0116,-0.23284 -0.0505,-0.35701 -0.15522,-0.46179 -0.14358,-0.15134 -0.38806,-0.20179 -0.96238,-0.20179 -0.43074,0 -0.64029,0.0311 -0.79551,0.11642 -0.22507,0.12418 -0.32985,0.37641 -0.32985,0.80715 0,0.37254 0.0815,0.61313 0.24836,0.74895 0.1591,0.13194 0.40745,0.17075 1.04775,0.17075 0.46566,0 0.66745,-0.0505 0.80715,-0.19791 0.10478,-0.10866 0.14746,-0.23672 0.15134,-0.47731 z"
         style="font-size:3.88055563px;line-height:89.99999762%;text-align:end;text-anchor:end;stroke-width:0.26458332px"
         id="path282"
         inkscape:connector-curvature="0" />
      <path
         d="m 110.66517,241.59402 v 0.44627 h -0.44238 v 0.24447 h 0.44238 v 0.86924 c 0,0.28329 0.0233,0.39582 0.1009,0.50448 0.10477,0.14358 0.31044,0.20179 0.69462,0.20179 0.38029,0 0.57432,-0.0621 0.6791,-0.2212 0.0737,-0.10865 0.097,-0.22507 0.097,-0.50447 v -0.11253 h -0.28328 v 0.11253 c 0,0.22119 -0.0116,0.28716 -0.0543,0.35313 -0.0621,0.097 -0.1591,0.12418 -0.41134,0.12418 -0.27164,0 -0.39969,-0.0349 -0.47343,-0.12418 -0.0582,-0.0737 -0.0582,-0.0854 -0.066,-0.42686 v -0.77611 h 1.2573 v -0.24447 h -1.2573 v -0.44627 z"
         style="font-size:3.88055563px;line-height:89.99999762%;text-align:end;text-anchor:end;stroke-width:0.26458332px"
         id="path284"
         inkscape:connector-curvature="0" />
      <path
         d="m 112.23795,242.04029 0.83044,1.79669 h 0.4191 l 0.54716,-1.52894 h 0.0272 l 0.55492,1.52894 h 0.42298 l 0.83432,-1.79669 h -0.32984 l -0.69074,1.5367 h -0.031 l -0.55104,-1.5367 h -0.44626 l -0.54328,1.5367 h -0.0272 l -0.6985,-1.5367 z"
         style="font-size:3.88055563px;line-height:89.99999762%;text-align:end;text-anchor:end;stroke-width:0.26458332px"
         id="path286"
         inkscape:connector-curvature="0" />
      <path
         d="m 117.00849,242.017 c -0.40746,0 -0.60925,0.0272 -0.75671,0.10478 -0.23671,0.12417 -0.34537,0.38029 -0.34537,0.80715 0,0.44239 0.0893,0.67134 0.31821,0.80328 0.16298,0.097 0.38417,0.12806 0.91193,0.12806 0.4579,0 0.65969,-0.0272 0.81491,-0.11642 0.22508,-0.12806 0.32209,-0.37253 0.32209,-0.80716 0,-0.4191 -0.0893,-0.65193 -0.30656,-0.79163 -0.15523,-0.097 -0.37642,-0.12806 -0.9585,-0.12806 z m 0.0466,0.24836 c 0.36477,0 0.5588,0.0194 0.66745,0.0699 0.18239,0.0815 0.24836,0.24059 0.24836,0.59372 0,0.31433 -0.0466,0.47343 -0.16299,0.56656 -0.11641,0.0893 -0.27552,0.11642 -0.69462,0.11642 -0.33372,0 -0.50447,-0.0155 -0.62089,-0.0582 -0.20955,-0.0737 -0.28328,-0.23283 -0.28328,-0.60536 0,-0.57821 0.12806,-0.68298 0.84597,-0.68298 z"
         style="font-size:3.88055563px;line-height:89.99999762%;text-align:end;text-anchor:end;stroke-width:0.26458332px"
         id="path288"
         inkscape:connector-curvature="0" />
      <path
         d="m 119.82935,242.57968 v -0.0233 c 0.004,-0.24836 0.11254,-0.29104 0.72954,-0.29104 0.46955,0 0.63253,0.0349 0.73343,0.1591 0.066,0.0776 0.0854,0.15522 0.0854,0.34149 v 0.19403 h -0.0233 c -0.12418,-0.17075 -0.24836,-0.19403 -0.98566,-0.19403 -0.3803,0 -0.55104,0.0155 -0.6597,0.0582 -0.18626,0.0699 -0.25611,0.20955 -0.25611,0.49283 0,0.21731 0.0388,0.32596 0.15522,0.4191 0.13194,0.10089 0.30268,0.12418 0.94685,0.12418 0.54716,0 0.6791,-0.0388 0.81492,-0.23284 h 0.0116 l -0.004,0.20955 h 0.28328 v -0.94685 c 0,-0.42686 -0.0272,-0.54716 -0.15134,-0.67134 -0.15134,-0.1591 -0.36089,-0.20179 -0.97014,-0.20179 -0.77999,0 -1.00894,0.10866 -1.00894,0.48507 v 0.0776 z m 0.72566,0.43851 c 0.63253,0 0.80328,0.0621 0.80328,0.29492 0,0.24059 -0.14358,0.2988 -0.74507,0.2988 -0.44238,0 -0.63641,-0.0116 -0.7179,-0.0466 -0.1009,-0.0427 -0.1397,-0.11253 -0.1397,-0.24447 0,-0.11642 0.0349,-0.19403 0.10477,-0.2406 0.0815,-0.0504 0.21732,-0.0621 0.69462,-0.0621 z"
         style="font-size:3.88055563px;line-height:89.99999762%;text-align:end;text-anchor:end;stroke-width:0.26458332px"
         id="path290"
         inkscape:connector-curvature="0" />
      <path
         d="m 121.96311,242.04029 v 1.79669 h 0.28328 v -0.70626 c 0,-0.44626 0.0233,-0.60148 0.11254,-0.70238 0.10477,-0.11642 0.28328,-0.16298 0.64417,-0.16298 0.33761,0 0.51223,0.0388 0.61313,0.13194 0.0737,0.0737 0.097,0.17074 0.097,0.43074 v 1.00894 h 0.28328 v -0.70626 c 0,-0.4385 0.0272,-0.58984 0.12806,-0.70626 0.097,-0.11642 0.26776,-0.1591 0.62865,-0.1591 0.59372,0 0.70626,0.0893 0.70626,0.56268 v 1.00894 h 0.28328 v -0.94685 c 0,-0.4191 -0.0233,-0.52388 -0.1397,-0.65582 -0.15134,-0.16298 -0.35701,-0.21731 -0.84596,-0.21731 -0.51611,0 -0.72178,0.0776 -0.8382,0.31433 -0.14358,-0.24448 -0.34537,-0.31433 -0.93133,-0.31433 -0.43851,0 -0.5588,0.0427 -0.73731,0.26 v -0.23671 z"
         style="font-size:3.88055563px;line-height:89.99999762%;text-align:end;text-anchor:end;stroke-width:0.26458332px"
         id="path292"
         inkscape:connector-curvature="0" />
      <path
         d="m 126.07862,244.48504 h 0.28328 v -0.86149 h 0.0155 c 0.13582,0.18627 0.30657,0.23672 0.82656,0.23672 0.49283,0 0.72567,-0.0311 0.87313,-0.11642 0.23283,-0.13582 0.33372,-0.3803 0.33372,-0.80328 0,-0.43074 -0.0854,-0.65193 -0.30268,-0.78775 -0.16298,-0.10477 -0.36865,-0.13582 -0.87312,-0.13582 -0.56657,0 -0.72955,0.0466 -0.85761,0.25612 h -0.0155 v -0.23283 h -0.28328 z m 1.22238,-2.21968 c 0.67909,0 0.80715,0.10865 0.80715,0.67909 0,0.30657 -0.0504,0.46567 -0.1785,0.5588 -0.11254,0.0815 -0.29493,0.10866 -0.73343,0.10866 -0.71402,0 -0.84208,-0.10477 -0.84208,-0.69074 0,-0.2988 0.0504,-0.45402 0.17851,-0.55104 0.10865,-0.0776 0.2988,-0.10477 0.76835,-0.10477 z"
         style="font-size:3.88055563px;line-height:89.99999762%;text-align:end;text-anchor:end;stroke-width:0.26458332px"
         id="path294"
         inkscape:connector-curvature="0" />
      <path
         d="m 128.63542,243.21221 v 0.0931 c 0,0.22119 0.0427,0.33372 0.16687,0.42298 0.13581,0.10089 0.38029,0.13194 0.99342,0.13194 0.51223,0 0.77223,-0.0272 0.90029,-0.097 0.14746,-0.0815 0.21343,-0.21343 0.21343,-0.43462 0,-0.35313 -0.16687,-0.50835 -0.57821,-0.52388 -0.18626,-0.008 -0.70626,-0.0194 -0.82655,-0.0155 -0.43075,0.008 -0.53552,-0.0388 -0.53552,-0.23671 0,-0.0931 0.0272,-0.1591 0.0815,-0.19791 0.0815,-0.0621 0.31821,-0.0893 0.7179,-0.0893 0.42686,0 0.6403,0.031 0.71791,0.11253 0.0427,0.0388 0.0543,0.0854 0.0543,0.21731 h 0.30269 c 0,-0.21343 -0.0155,-0.27163 -0.0815,-0.35313 -0.13194,-0.17074 -0.37642,-0.22507 -0.98178,-0.22507 -0.52776,0 -0.79552,0.0349 -0.92358,0.11642 -0.12806,0.0854 -0.19014,0.22119 -0.19014,0.41522 0,0.36089 0.16686,0.48895 0.64029,0.49671 0.68686,0.008 0.74506,0.008 0.82268,0.008 0.36089,-0.004 0.4773,0.066 0.4773,0.2794 0,0.0892 -0.0233,0.15134 -0.0776,0.19403 -0.0854,0.0699 -0.22507,0.0854 -0.72178,0.0854 -0.80716,0 -0.86925,-0.0233 -0.86536,-0.34925 l -0.004,-0.0505 z"
         style="font-size:3.88055563px;line-height:89.99999762%;text-align:end;text-anchor:end;stroke-width:0.26458332px"
         id="path296"
         inkscape:connector-curvature="0" />
    </g>
    <text
       xml:space="preserve"
       style="font-style:normal;font-variant:normal;font-weight:normal;font-stretch:normal;font-size:14.11111069px;line-height:125%;font-family:Helvetica;-inkscape-font-specification:Helvetica;letter-spacing:0px;word-spacing:0px;fill:#000000;fill-opacity:1;stroke:none;stroke-width:0.26458332px;stroke-linecap:butt;stroke-linejoin:miter;stroke-opacity:1;"
       x="40.639999"
       y="261.43997"
       id="text196"><tspan
         sodipodi:role="line"
         id="tspan194"
         x="40.639999"
         y="274.48938"
         style="stroke-width:0.26458332px;-inkscape-font-specification:Helvetica;font-family:Helvetica;font-weight:normal;font-style:normal;font-stretch:normal;font-variant:normal;" /></text>
    <g
       aria-label="+"
       style="font-style:normal;font-variant:normal;font-weight:normal;font-stretch:normal;font-size:6.3499999px;line-height:125%;font-family:Helvetica;-inkscape-font-specification:Helvetica;letter-spacing:0px;word-spacing:0px;fill:#000000;fill-opacity:1;stroke:none;stroke-width:0.26458332px;stroke-linecap:butt;stroke-linejoin:miter;stroke-opacity:1"
       id="text200"
       transform="translate(-11.682053,-47.503898)">
      <path
         d="m 155.2028,222.33202 v -0.5209 h 1.35185 v -1.36115 h 0.5302 v 1.36115 h 1.35186 v 0.5209 h -1.35186 v 1.35806 h -0.5302 v -1.35806 z"
         style="font-style:normal;font-variant:normal;font-weight:normal;font-stretch:normal;font-size:6.3499999px;font-family:Helvetica;-inkscape-font-specification:Helvetica;stroke-width:0.26458332px"
         id="path305"
         inkscape:connector-curvature="0" />
    </g>
    <g
       aria-label=""
       style="font-style:normal;font-variant:normal;font-weight:normal;font-stretch:normal;font-size:6.3499999px;line-height:125%;font-family:Helvetica;-inkscape-font-specification:Helvetica;letter-spacing:0px;word-spacing:0px;fill:#000000;fill-opacity:1;stroke:none;stroke-width:0.26458332px;stroke-linecap:butt;stroke-linejoin:miter;stroke-opacity:1"
       id="text204"
       transform="translate(-11.682053,-47.503898)">
      <path
         d="m 158.43671,239.58957 v 0.52089 h -3.23391 v -0.52089 z"
         style="font-style:normal;font-variant:normal;font-weight:normal;font-stretch:normal;font-size:6.3499999px;font-family:Helvetica;-inkscape-font-specification:Helvetica;stroke-width:0.26458332px"
         id="path299"
         inkscape:connector-curvature="0" />
    </g>
    <g
       aria-label=""
       style="font-style:normal;font-variant:normal;font-weight:normal;font-stretch:normal;font-size:7.05555534px;line-height:125%;font-family:Helvetica;-inkscape-font-specification:Helvetica;letter-spacing:0px;word-spacing:0px;fill:#000000;fill-opacity:1;stroke:none;stroke-width:0.26458332px;stroke-linecap:butt;stroke-linejoin:miter;stroke-opacity:1"
       id="text208"
       transform="translate(-11.682053,-47.503898)">
      <path
         d="m 156.81803,232.21129 q -0.62701,0 -1.07142,-0.44098 -0.44442,-0.44441 -0.44442,-1.07487 0,-0.627 0.44442,-1.07142 0.44786,-0.44442 1.07142,-0.44442 0.63045,0 1.07487,0.44442 0.44442,0.44097 0.44442,1.07142 0,0.62701 -0.44786,1.07143 -0.44442,0.44442 -1.07143,0.44442 z m 0,-2.7733 q -0.51676,0 -0.88539,0.36862 -0.36862,0.36863 -0.36862,0.88883 0,0.51677 0.36862,0.88884 0.37207,0.36862 0.88539,0.36862 0.51677,0 0.88539,-0.36862 0.37207,-0.37207 0.37207,-0.88884 0,-0.51676 -0.37207,-0.88538 -0.36862,-0.37207 -0.88539,-0.37207 z m 0,1.9637 q -0.28939,0 -0.49609,-0.20671 -0.20671,-0.21015 -0.20671,-0.49954 0,-0.28938 0.20671,-0.49609 0.2067,-0.21015 0.49609,-0.21015 0.28939,0 0.4961,0.21015 0.21015,0.20671 0.21015,0.49609 0,0.28939 -0.20671,0.49954 -0.2067,0.20671 -0.49954,0.20671 z"
         style="font-style:normal;font-variant:normal;font-weight:normal;font-stretch:normal;font-size:7.05555534px;font-family:Helvetica;-inkscape-font-specification:Helvetica;stroke-width:0.26458332px"
         id="path302"
         inkscape:connector-curvature="0" />
    </g>
    <path
       style="opacity:1;fill:#ff6600;fill-opacity:1;fill-rule:nonzero;stroke:none;stroke-width:0.99999994;stroke-linecap:square;stroke-linejoin:miter;stroke-miterlimit:4;stroke-dasharray:none;stroke-dashoffset:0;stroke-opacity:1;paint-order:fill markers stroke"
       d="M 58.273438 236.1543 L 58.273438 236.44141 L 58.273438 248.62891 L 47.708984 248.62891 L 47.708984 259.19336 L 35.234375 259.19336 L 35.234375 271.28516 L 47.708984 271.28516 L 47.708984 282.23242 L 35.234375 282.23242 L 35.234375 294.33008 L 47.708984 294.33008 L 47.708984 305.27148 L 35.234375 305.27148 L 35.234375 317.36914 L 47.708984 317.36914 L 47.708984 328.30859 L 35.234375 328.30859 L 35.234375 340.4082 L 47.708984 340.4082 L 47.708984 351.34766 L 35.234375 351.34766 L 35.234375 363.44727 L 47.708984 363.44727 L 47.708984 374.39453 L 35.234375 374.39453 L 35.234375 386.48633 L 47.708984 386.48633 L 47.708984 397.43359 L 35.234375 397.43359 L 35.234375 409.52539 L 47.708984 409.52539 L 47.708984 422.00781 L 566.68555 422.00781 L 566.68555 409.52539 L 579.16797 409.52539 L 579.16797 397.43359 L 566.68555 397.43359 L 566.68555 386.48633 L 579.16797 386.48633 L 579.16797 374.39453 L 566.68555 374.39453 L 566.68555 363.44727 L 579.16797 363.44727 L 579.16797 351.34766 L 566.68555 351.34766 L 566.68555 340.4082 L 579.16797 340.4082 L 579.16797 328.30859 L 566.68555 328.30859 L 566.68555 317.36914 L 579.16797 317.36914 L 579.16797 305.27148 L 566.68555 305.27148 L 566.68555 294.33008 L 579.16797 294.33008 L 579.16797 282.23242 L 566.68555 282.23242 L 566.68555 271.28516 L 579.16797 271.28516 L 579.16797 259.19336 L 566.68555 259.19336 L 566.68555 248.62891 L 554.21094 248.62891 L 554.21094 236.1543 L 542.11133 236.1543 L 542.11133 248.62891 L 531.17188 248.62891 L 531.17188 236.1543 L 519.07227 236.1543 L 519.07227 248.62891 L 508.125 248.62891 L 508.125 236.1543 L 496.0332 236.1543 L 496.0332 248.62891 L 485.08594 248.62891 L 485.08594 236.1543 L 472.99414 236.1543 L 472.99414 248.62891 L 462.04688 248.62891 L 462.04688 236.1543 L 449.95508 236.1543 L 449.95508 248.62891 L 439.00781 248.62891 L 439.00781 236.1543 L 426.91016 236.1543 L 426.91016 248.62891 L 415.96875 248.62891 L 415.96875 236.1543 L 403.87109 236.1543 L 403.87109 248.62891 L 392.92969 248.62891 L 392.92969 236.1543 L 380.83203 236.1543 L 380.83203 248.62891 L 369.88477 248.62891 L 369.88477 236.1543 L 357.79297 236.1543 L 357.79297 248.62891 L 346.8457 248.62891 L 346.8457 236.1543 L 334.75391 236.1543 L 334.75391 248.62891 L 323.80664 248.62891 L 323.80664 236.1543 L 311.71484 236.1543 L 311.71484 248.62891 L 300.76758 248.62891 L 300.76758 236.1543 L 288.67578 236.1543 L 288.67578 248.62891 L 277.72852 248.62891 L 277.72852 236.1543 L 265.63086 236.1543 L 265.63086 248.62891 L 254.68945 248.62891 L 254.68945 236.1543 L 242.5918 236.1543 L 242.5918 248.62891 L 231.64453 248.62891 L 231.64453 236.1543 L 219.55273 236.1543 L 219.55273 248.62891 L 208.60547 248.62891 L 208.60547 236.1543 L 196.51367 236.1543 L 196.51367 248.62891 L 185.56641 248.62891 L 185.56641 236.1543 L 173.47461 236.1543 L 173.47461 248.62891 L 162.52734 248.62891 L 162.52734 236.1543 L 150.43555 236.1543 L 150.43555 248.62891 L 139.48828 248.62891 L 139.48828 236.1543 L 127.38867 236.1543 L 127.38867 248.62891 L 116.44922 248.62891 L 116.44922 236.1543 L 104.34961 236.1543 L 104.34961 248.62891 L 93.410156 248.62891 L 93.410156 236.1543 L 81.310547 236.1543 L 81.310547 248.62891 L 70.371094 248.62891 L 70.371094 236.1543 L 58.273438 236.1543 z "
       transform="scale(0.26458333)"
       id="path464" />
    <path
       style="opacity:1;fill:#00aa88;fill-opacity:1;fill-rule:nonzero;stroke:none;stroke-width:0.99999994;stroke-linecap:square;stroke-linejoin:miter;stroke-miterlimit:4;stroke-dasharray:none;stroke-dashoffset:0;stroke-opacity:1;paint-order:fill markers stroke"
       d="M 623.71094 236.1543 L 623.71094 236.44141 L 623.71094 248.62891 L 618.24023 248.62891 L 605.4707 248.62891 L 605.4707 260.72852 L 617.95312 260.72852 L 617.95312 271.66797 L 605.4707 271.66797 L 605.4707 283.76758 L 617.95312 283.76758 L 617.95312 294.71484 L 605.4707 294.71484 L 605.4707 306.80664 L 617.95312 306.80664 L 617.95312 317.75391 L 605.4707 317.75391 L 605.4707 329.8457 L 617.95312 329.8457 L 617.95312 340.79297 L 605.4707 340.79297 L 605.4707 352.89062 L 617.95312 352.89062 L 617.95312 363.83203 L 605.4707 363.83203 L 605.4707 375.92969 L 617.95312 375.92969 L 617.95312 386.86914 L 605.4707 386.86914 L 605.4707 398.96875 L 617.95312 398.96875 L 617.95312 409.9082 L 605.4707 409.9082 L 605.4707 422.00781 L 618.24023 422.00781 L 623.71094 422.00781 L 623.71094 434.49023 L 635.80859 434.49023 L 635.80859 422.00781 L 646.75 422.00781 L 646.75 434.49023 L 658.84766 434.49023 L 658.84766 422.00781 L 669.78906 422.00781 L 669.78906 434.49023 L 681.88672 434.49023 L 681.88672 422.00781 L 692.83398 422.00781 L 692.83398 434.49023 L 704.92578 434.49023 L 704.92578 422.00781 L 715.87305 422.00781 L 715.87305 434.49023 L 727.96484 434.49023 L 727.96484 422.00781 L 733.44336 422.00781 L 746.20508 422.00781 L 746.20508 409.9082 L 733.73047 409.9082 L 733.73047 398.96875 L 746.20508 398.96875 L 746.20508 386.86914 L 733.73047 386.86914 L 733.73047 375.92969 L 746.20508 375.92969 L 746.20508 363.83203 L 733.73047 363.83203 L 733.73047 352.89062 L 746.20508 352.89062 L 746.20508 340.79297 L 733.73047 340.79297 L 733.73047 329.8457 L 746.20508 329.8457 L 746.20508 317.75391 L 733.73047 317.75391 L 733.73047 306.80664 L 746.20508 306.80664 L 746.20508 294.71484 L 733.73047 294.71484 L 733.73047 283.76758 L 746.20508 283.76758 L 746.20508 271.66797 L 733.73047 271.66797 L 733.73047 260.72852 L 746.20508 260.72852 L 746.20508 248.62891 L 733.44336 248.62891 L 727.96484 248.62891 L 727.96484 236.1543 L 715.87305 236.1543 L 715.87305 248.62891 L 704.92578 248.62891 L 704.92578 236.1543 L 692.83398 236.1543 L 692.83398 248.62891 L 681.88672 248.62891 L 681.88672 236.1543 L 669.78906 236.1543 L 669.78906 248.62891 L 658.84766 248.62891 L 658.84766 236.1543 L 646.75 236.1543 L 646.75 248.62891 L 635.80859 248.62891 L 635.80859 236.1543 L 623.71094 236.1543 z "
       transform="scale(0.26458333)"
       id="path466" />
  </g>
</svg>
